<svg xmlns="http://www.w3.org/2000/svg" width="30" height="30" viewBox="0 0 30 30"><defs><style>.a{fill:#fff;opacity:0;}.b{fill:#e35205;}</style></defs><rect class="a" width="30" height="30"/><path class="b" d="M7.427,20.568h0a47.85,47.85,0,0,1-3.713-4.66,29.223,29.223,0,0,1-2.553-4.343A10.764,10.764,0,0,1,0,7.2,7.043,7.043,0,0,1,2.174,2.107,7.5,7.5,0,0,1,7.427,0a7.5,7.5,0,0,1,5.253,2.107A7.043,7.043,0,0,1,14.854,7.2a10.764,10.764,0,0,1-1.161,4.367,29.224,29.224,0,0,1-2.553,4.343,47.851,47.851,0,0,1-3.713,4.66Zm0-16.454A3.139,3.139,0,0,0,4.244,7.2a3.139,3.139,0,0,0,3.183,3.085A3.139,3.139,0,0,0,10.61,7.2,3.139,3.139,0,0,0,7.427,4.114Z" transform="translate(6.685 5.219)"/></svg>