<svg xmlns="http://www.w3.org/2000/svg" width="30" height="30" viewBox="0 0 30 30"><defs><style>.a,.c{fill:#fff;}.a{opacity:0;}.b{fill:#e35205;}.c{stroke:#fff;}</style></defs><rect class="a" width="30" height="30"/><g transform="translate(6 6)"><circle class="b" cx="9" cy="9" r="9"/><path class="c" d="M48.219,36.543l.009-.009c.009-.009.017-.017.017-.026a.009.009,0,0,1,.009-.009c.009-.009.009-.017.017-.026s.009-.009.009-.017.009-.017.009-.026.009-.017.009-.026.009-.009.009-.017.009-.017.009-.026,0-.009.009-.017.009-.017.009-.035V30.323a.523.523,0,1,0-1.046,0v5.6l-4.522,3.032a.512.512,0,0,0-.139.723.542.542,0,0,0,.436.235.505.505,0,0,0,.288-.087L48.1,36.639h0a.153.153,0,0,0,.044-.035l.017-.017.017-.017A.093.093,0,0,0,48.219,36.543Z" transform="translate(-38.827 -27.204)"/></g></svg>