<svg xmlns="http://www.w3.org/2000/svg" width="113.81" height="94.25" viewBox="0 0 113.81 94.25"><defs><style>.a{fill:#e35205;}.b{fill:none;stroke:#fff;stroke-linecap:round;stroke-width:6px;}</style></defs><g transform="translate(-1428.096 -5011)"><path class="a" d="M63.774-7330.018H6.1A6.094,6.094,0,0,1,0-7336.1v-64.826A6.1,6.1,0,0,1,6.1-7407H107.713a6.1,6.1,0,0,1,6.1,6.079v64.826a6.094,6.094,0,0,1-6.1,6.077h-13.2a16.352,16.352,0,0,0,1.045-4.05,16.661,16.661,0,0,0,.128-2.06,16.358,16.358,0,0,0-4.845-11.662,16.462,16.462,0,0,0-11.7-4.83,16.462,16.462,0,0,0-11.7,4.83,16.359,16.359,0,0,0-4.846,11.662,16.357,16.357,0,0,0,1.173,6.11Z" transform="translate(1428.096 12418)"/><path class="a" d="M286.184,251.077a12.177,12.177,0,1,0-19.992-.015,10.831,10.831,0,0,0,1.276,1.53,12.178,12.178,0,0,0,17.428.024A11.059,11.059,0,0,0,286.184,251.077Zm-9.991,3.172a10.129,10.129,0,1,1,10.162-10.129A10.146,10.146,0,0,1,276.193,254.249Zm0,0" transform="translate(1231.163 4837.785)"/><path class="a" d="M280.142,335.454c-.047-.027-.1-.042-.142-.069V344.7l7.373-2.942a2.069,2.069,0,0,1,1.512,0l7.373,2.94v-9.319c-.037.023-.079.035-.116.057a16.175,16.175,0,0,1-16,.012Zm0,0" transform="translate(1219.227 4760.546)"/><path class="a" d="M304.258,264.1a8.129,8.129,0,1,1-8.129-8.1A8.117,8.117,0,0,1,304.258,264.1Zm0,0" transform="translate(1211.227 4817.801)"/><line class="b" x2="74.689" transform="translate(1447.211 5056.792)"/><line class="b" x2="28.453" transform="translate(1447.211 5068.35)"/><line class="b" x2="19.561" transform="translate(1475.664 5032.784)"/><line class="b" x2="19.561" transform="translate(1485.445 5023.003) rotate(90)"/></g></svg>