<svg xmlns="http://www.w3.org/2000/svg" width="30" height="30" viewBox="0 0 30 30"><defs><style>.a{fill:#fff;opacity:0;}.b{fill:#e35205;}</style></defs><rect class="a" width="30" height="30"/><path class="b" d="M0,.916A.919.919,0,0,1,.916,0H4.125a.92.92,0,0,1,.917.916,10.417,10.417,0,0,0,.522,3.273.88.88,0,0,1-.229.917L3.319,7.132a13.791,13.791,0,0,0,6.041,6.041l2.016-2.016a.936.936,0,0,1,.935-.22,10.418,10.418,0,0,0,3.273.523.919.919,0,0,1,.916.916v3.208a.919.919,0,0,1-.916.916A15.582,15.582,0,0,1,0,.916ZM14.667,8.25A6.412,6.412,0,0,0,8.25,1.834V0A8.25,8.25,0,0,1,16.5,8.25ZM11,8.25A2.747,2.747,0,0,0,8.25,5.5V3.667A4.585,4.585,0,0,1,12.834,8.25Z" transform="translate(6.75 6.75)"/></svg>