<svg xmlns="http://www.w3.org/2000/svg" width="46.934" height="44" viewBox="0 0 46.934 44"><defs><style>.a{fill:#e35205;}.b{fill:#fff;}.c{fill:none;stroke:#fff;stroke-width:2px;}</style></defs><path class="a" d="M47.134,3.563h-6.7V5.194a5.07,5.07,0,0,1-10.139,0V3.563H16.881V5.194a5.089,5.089,0,0,1-5.07,5.057A4.95,4.95,0,0,1,6.9,5.194V3.563L.2,3.4V43.445H47.134Zm-3.271,36.62Z" transform="translate(-0.2 0.555)"/><path class="a" d="M8.4,8.968a2.644,2.644,0,0,0,2.7-2.531V3.589A2.673,2.673,0,0,0,8.4.9,2.582,2.582,0,0,0,5.7,3.589V6.279A2.674,2.674,0,0,0,8.4,8.968Z" transform="translate(3.328 -0.9)"/><path class="a" d="M22.7,8.968a2.644,2.644,0,0,0,2.7-2.531V3.589A2.673,2.673,0,0,0,22.7.9,2.582,2.582,0,0,0,20,3.589V6.279A2.674,2.674,0,0,0,22.7,8.968Z" transform="translate(12.499 -0.9)"/><g transform="translate(11.731 20.459)"><path class="b" d="M23.307,54.189l-2.083-2.083a1.479,1.479,0,0,0-2.083,0L9.1,62.168l-4.5-4.518a1.417,1.417,0,0,0-1.041-.429,1.418,1.418,0,0,0-1.041.429L.429,59.733a1.479,1.479,0,0,0,0,2.083l5.543,5.543,2.083,2.083a1.479,1.479,0,0,0,2.083,0l2.083-2.083L23.307,56.272a1.479,1.479,0,0,0,0-2.083Z" transform="translate(0 -51.678)"/></g><line class="c" x2="46.934" transform="translate(0 14.364)"/></svg>