<svg xmlns="http://www.w3.org/2000/svg" width="111.424" height="84.629" viewBox="0 0 111.424 84.629"><defs><style>.a{fill:#e35205;}</style></defs><path class="a" d="M111.422,6.023a6.257,6.257,0,0,0-6.476-6.04A43.227,43.227,0,0,0,94.065,1.815C84.886,4.584,79.3,11.409,77.45,22.093c-1.417,8.111-.545,17.313.305,26.187.065.632.131,1.265.2,1.941.48,4.71,1,10.052.458,14.347-.741,5.887-3.162,6.912-4.928,7.174-1.919.283-4.492-.305-5.887-4.775-1.439-4.579-1.439-11.578-1.417-18.36,0-7.959.022-16.157-2.137-22.829A19.979,19.979,0,0,0,57,15.464,19.752,19.752,0,0,0,45.092,11.91,19.184,19.184,0,0,0,34.6,14.766c-3.9,2.486-6.738,6.52-8.438,11.993-2.18,7.065-2.311,15.7-2.442,24.051-.109,6.585-.2,12.821-1.286,17.051-.938,3.6-1.832,3.62-2.595,3.62-.24,0-.567,0-1.177-.611-1.047-1.025-3.62-4.557-5.146-15.329a105.122,105.122,0,0,1-.959-12.3v-.2A6.264,6.264,0,0,0,6.3,36.9,6.347,6.347,0,0,0,0,43.2,112.4,112.4,0,0,0,1.068,57.22c1.526,10.771,4.47,18.36,8.787,22.611A13.922,13.922,0,0,0,20.017,84.04a13.837,13.837,0,0,0,8.2-2.638c2.987-2.2,5.1-5.691,6.323-10.379,1.461-5.691,1.57-12.647,1.679-19.995.109-7.479.24-15.2,1.9-20.562,1.723-5.582,4.383-6.04,6.977-6.04,4.012,0,5.778,1.308,7.043,5.233,1.548,4.775,1.548,11.993,1.526,18.97,0,.916,0,1.853-.022,2.791-.044,6.977-.087,14.195,1.7,19.864,2.769,8.831,8.722,13.323,17.705,13.323,5.233,0,9.42-1.679,12.45-5.015,6.52-7.174,5.909-19.995,4.732-32.489-.763-8.068-1.57-16.4-.436-22.873,1.025-5.953,3.4-9.071,7.893-10.444a30.294,30.294,0,0,1,7.7-1.308,6.256,6.256,0,0,0,6.04-6.454Z" transform="translate(0 0.022)"/></svg>