<svg xmlns="http://www.w3.org/2000/svg" width="80" height="80" viewBox="0 0 80 80"><defs><style>.a{fill:#fff;stroke:#fff;stroke-miterlimit:10;stroke-width:10px;}.b{fill:#82c31b;}.c{stroke:none;}.d{fill:none;}</style></defs><g transform="translate(10.324 10.324)"><g class="a" transform="translate(-0.324 -0.324)"><circle class="c" cx="30" cy="30" r="30"/><circle class="d" cx="30" cy="30" r="35"/></g><path class="b" d="M29.694,59.387A29.7,29.7,0,0,1,18.136,2.333a29.7,29.7,0,0,1,23.117,54.72A29.508,29.508,0,0,1,29.694,59.387ZM14.572,29.877a3.053,3.053,0,0,0-2.138.859,2.867,2.867,0,0,0,0,4.147l9.072,8.8a3.093,3.093,0,0,0,4.277,0L46.953,23.153a2.867,2.867,0,0,0,0-4.147,3.087,3.087,0,0,0-4.276,0L23.645,37.461,16.71,30.736A3.053,3.053,0,0,0,14.572,29.877Z" transform="translate(-0.018 -0.018)"/></g></svg>