<svg xmlns="http://www.w3.org/2000/svg" width="48.642" height="44" viewBox="0 0 48.642 44"><defs><style>.a{fill:#e35205;}</style></defs><g transform="translate(-0.001 -0.102)"><path class="a" d="M189.674,52.386A4.284,4.284,0,1,1,185.39,48.1,4.284,4.284,0,0,1,189.674,52.386Zm0,0" transform="translate(-161.067 -42.859)"/><path class="a" d="M48.632,199.1l-3.817-22.277a.882.882,0,0,0-.473-.632.96.96,0,0,0-.385-.086H31.571a80.508,80.508,0,0,1-6.589,8.279.891.891,0,0,1-1.243.064l-.066-.064a81.349,81.349,0,0,1-6.589-8.279H4.687a.878.878,0,0,0-.869.718L.012,199.1a.856.856,0,0,0,.726.986.662.662,0,0,0,.143.01H47.763a.871.871,0,0,0,.88-.857A.611.611,0,0,0,48.632,199.1Zm-21.67-12.713h1.76V188.1h-1.76Zm-4.4,0h3.52V188.1h-3.52Zm-2.64,0h1.76V188.1h-1.76Zm0,0" transform="translate(0 -155.991)"/><path class="a" d="M142.53,25.367a79.724,79.724,0,0,0,5.569-7.272c2.11-3.149,3.856-6.415,3.856-8.568a9.425,9.425,0,1,0-18.85,0c0,2.153,1.745,5.42,3.856,8.568A79.647,79.647,0,0,0,142.53,25.367Zm-6-15.841a6,6,0,1,1,6,6A6,6,0,0,1,136.533,9.527Zm0,0" transform="translate(-118.208)"/><path class="a" d="M399.605,176.1a.841.841,0,0,1,.375.086V176.1Zm0,0" transform="translate(-355.525 -156.639)"/></g></svg>