<svg xmlns="http://www.w3.org/2000/svg" width="75.558" height="97.275" viewBox="0 0 75.558 97.275"><defs><style>.a{fill:#e35205;}</style></defs><g transform="translate(-1096.992 -4619.354)"><rect class="a" width="20.504" height="6.067" transform="translate(1139.896 4691.743)"/><path class="a" d="M122.429,79.827H81.113a15.1,15.1,0,0,0-8.485-20.695A28.908,28.908,0,0,1,90.612,36.623V50.292a1.349,1.349,0,0,0,1.349,1.349h1.318v9.45a1.349,1.349,0,0,0,1.349,1.349h13.495a1.349,1.349,0,0,0,1.349-1.349V51.641h1.318a1.349,1.349,0,0,0,1.349-1.349V7.457a1.349,1.349,0,0,0-1.349-1.349h-1.318V1.349A1.349,1.349,0,0,0,108.123,0H94.628a1.349,1.349,0,0,0-1.349,1.349V6.108H91.961a1.349,1.349,0,0,0-1.349,1.349V22.849A43.033,43.033,0,0,0,55.567,64.071a15.063,15.063,0,0,0-1.713,15.756H49.569a1.349,1.349,0,0,0-1.349,1.349v8.472A1.349,1.349,0,0,0,49.569,91h8.616v4.928a1.349,1.349,0,0,0,1.349,1.349H70.622a1.349,1.349,0,0,0,1.349-1.349V91h28.055v4.928a1.349,1.349,0,0,0,1.349,1.349h11.088a1.349,1.349,0,0,0,1.349-1.349V91h8.616a1.349,1.349,0,0,0,1.349-1.349V81.176A1.349,1.349,0,0,0,122.429,79.827Zm-54.945.057a6.554,6.554,0,1,1,6.553-6.554A6.561,6.561,0,0,1,67.484,79.884Z" transform="translate(1048.772 4619.354)"/></g></svg>