<svg xmlns="http://www.w3.org/2000/svg" width="110.44" height="110.44" viewBox="0 0 110.44 110.44"><defs><style>.a{fill:#e35205;}</style></defs><g transform="translate(-729.793 -5003)"><path class="a" d="M146.845,74.937H93.352A10.2,10.2,0,0,0,83.163,85.126V138.62a10.2,10.2,0,0,0,10.189,10.191h53.493a10.2,10.2,0,0,0,10.191-10.191v-53.5A10.2,10.2,0,0,0,146.845,74.937Z" transform="translate(666.006 4945.522)"/><path class="a" d="M419.243,132.669h9.852a1.648,1.648,0,1,0,0-3.3h-9.852a1.648,1.648,0,0,0,0,3.3Z" transform="translate(409.489 4903.768)"/><path class="a" d="M429.094,167.888h-9.852a1.648,1.648,0,0,0,0,3.3h9.852a1.648,1.648,0,1,0,0-3.3Z" transform="translate(409.489 4874.227)"/><path class="a" d="M429.094,207.132h-9.852a1.65,1.65,0,0,0,0,3.3h9.852a1.65,1.65,0,1,0,0-3.3Z" transform="translate(409.489 4844.126)"/><path class="a" d="M429.094,245.646h-9.852a1.649,1.649,0,0,0,0,3.3h9.852a1.649,1.649,0,1,0,0-3.3Z" transform="translate(409.489 4814.585)"/><path class="a" d="M429.094,281.184h-9.852a1.646,1.646,0,1,0,0,3.292h9.852a1.646,1.646,0,1,0,0-3.292Z" transform="translate(409.489 4787.327)"/><path class="a" d="M429.094,319.689h-9.852a1.646,1.646,0,1,0,0,3.291h9.852a1.646,1.646,0,1,0,0-3.291Z" transform="translate(409.489 4757.793)"/><path class="a" d="M11.5,129.366H1.646a1.648,1.648,0,0,0,0,3.3H11.5a1.648,1.648,0,0,0,0-3.3Z" transform="translate(729.793 4903.774)"/><path class="a" d="M11.5,167.888H1.646a1.648,1.648,0,0,0,0,3.3H11.5a1.648,1.648,0,0,0,0-3.3Z" transform="translate(729.793 4874.227)"/><path class="a" d="M11.5,207.132H1.646a1.65,1.65,0,0,0,0,3.3H11.5a1.65,1.65,0,0,0,0-3.3Z" transform="translate(729.793 4844.126)"/><path class="a" d="M11.5,245.646H1.646a1.649,1.649,0,0,0,0,3.3H11.5a1.649,1.649,0,0,0,0-3.3Z" transform="translate(729.793 4814.585)"/><path class="a" d="M11.5,281.184H1.646a1.646,1.646,0,0,0,0,3.292H11.5a1.646,1.646,0,1,0,0-3.292Z" transform="translate(729.793 4787.327)"/><path class="a" d="M11.5,319.689H1.646a1.646,1.646,0,1,0,0,3.291H11.5a1.646,1.646,0,1,0,0-3.291Z" transform="translate(729.793 4757.793)"/><path class="a" d="M331.44,417.606a1.651,1.651,0,0,0-1.648,1.646v9.854a1.648,1.648,0,0,0,3.3,0v-9.854A1.648,1.648,0,0,0,331.44,417.606Z" transform="translate(476.837 4682.689)"/><path class="a" d="M292.938,417.606a1.648,1.648,0,0,0-1.642,1.646v9.854a1.646,1.646,0,1,0,3.291,0v-9.854A1.65,1.65,0,0,0,292.938,417.606Z" transform="translate(506.364 4682.689)"/><path class="a" d="M253.7,417.606a1.648,1.648,0,0,0-1.648,1.646v9.854a1.646,1.646,0,1,0,3.292,0v-9.854A1.649,1.649,0,0,0,253.7,417.606Z" transform="translate(536.466 4682.689)"/><path class="a" d="M215.17,417.606a1.651,1.651,0,0,0-1.65,1.646v9.854a1.647,1.647,0,0,0,3.293,0v-9.854A1.646,1.646,0,0,0,215.17,417.606Z" transform="translate(566.019 4682.689)"/><path class="a" d="M179.633,417.606a1.651,1.651,0,0,0-1.65,1.646v9.854a1.647,1.647,0,0,0,3.293,0v-9.854A1.647,1.647,0,0,0,179.633,417.606Z" transform="translate(593.277 4682.689)"/><path class="a" d="M141.128,417.606a1.649,1.649,0,0,0-1.65,1.646v9.854a1.647,1.647,0,0,0,3.293,0v-9.854A1.646,1.646,0,0,0,141.128,417.606Z" transform="translate(622.811 4682.689)"/><path class="a" d="M331.44,13.141a1.647,1.647,0,0,0,1.648-1.64V1.646a1.648,1.648,0,0,0-3.3,0V11.5A1.648,1.648,0,0,0,331.44,13.141Z" transform="translate(476.837 5003)"/><path class="a" d="M292.938,13.141a1.648,1.648,0,0,0,1.65-1.64V1.646a1.646,1.646,0,1,0-3.291,0V11.5A1.644,1.644,0,0,0,292.938,13.141Z" transform="translate(506.364 5003)"/><path class="a" d="M253.7,13.141a1.645,1.645,0,0,0,1.644-1.64V1.646a1.646,1.646,0,1,0-3.292,0V11.5A1.643,1.643,0,0,0,253.7,13.141Z" transform="translate(536.466 5003)"/><path class="a" d="M215.17,13.141a1.644,1.644,0,0,0,1.644-1.64V1.646a1.647,1.647,0,0,0-3.293,0V11.5A1.647,1.647,0,0,0,215.17,13.141Z" transform="translate(566.019 5003)"/><path class="a" d="M179.633,13.141a1.644,1.644,0,0,0,1.644-1.64V1.646a1.647,1.647,0,0,0-3.293,0V11.5A1.647,1.647,0,0,0,179.633,13.141Z" transform="translate(593.277 5003)"/><path class="a" d="M141.128,13.141a1.644,1.644,0,0,0,1.644-1.64V1.646a1.647,1.647,0,0,0-3.293,0V11.5A1.645,1.645,0,0,0,141.128,13.141Z" transform="translate(622.811 5003)"/></g></svg>