<svg xmlns="http://www.w3.org/2000/svg" width="94.859" height="88.199" viewBox="0 0 94.859 88.199"><defs><style>.a{fill:#e35205;}</style></defs><g transform="translate(-1087.471 -5014)"><path class="a" d="M23.3,77.68a10.515,10.515,0,0,1-7.61-3.533c-4.349-4.485-4.485-14.813-.408-24.6C20.582,36.91,31.046,29.3,43.005,29.3c12.1,0,22.559,7.339,27.859,19.705,4.213,9.785,3.941,20.249-.544,25.005a9.863,9.863,0,0,1-7.474,3.4c-4.213,0-8.426-2.582-12.231-5.028-3.4-2.174-5.844-3.533-7.746-3.533s-4.213,1.359-7.61,3.533C31.725,74.962,27.513,77.68,23.3,77.68Z" transform="translate(1091.896 5024.518)"/><path class="a" d="M28.514,30.713c-5.164,0-10.057-5.708-11.416-13.318C15.6,8.969,18.729,1.359,24.3.136A4.623,4.623,0,0,1,25.66,0c5.164,0,10.057,5.708,11.416,13.318,1.495,8.426-1.631,16.036-7.2,17.259C29.465,30.577,29.058,30.713,28.514,30.713Z" transform="translate(1093.476 5014)"/><path class="a" d="M13.318,41.582c-3.669,0-7.61-2.446-10.328-6.387-4.077-5.844-3.941-12.91.136-16.036A6.912,6.912,0,0,1,7.475,17.8c3.669,0,7.61,2.446,10.328,6.387,4.077,5.844,3.941,12.91-.136,16.036A7.854,7.854,0,0,1,13.318,41.582Z" transform="translate(1087.472 5020.39)"/><path class="a" d="M46.76,30.713a4.623,4.623,0,0,1-1.359-.136c-5.572-1.087-8.7-8.7-7.2-17.259C39.557,5.708,44.45,0,49.614,0a4.623,4.623,0,0,1,1.359.136c5.572,1.087,8.7,8.833,7.2,17.259C56.817,25.005,51.788,30.713,46.76,30.713Z" transform="translate(1101.051 5014)"/><path class="a" d="M61.975,41.582a7.854,7.854,0,0,1-4.349-1.359c-4.077-3.126-4.213-10.192-.136-16.036,2.718-3.941,6.659-6.387,10.328-6.387a7.854,7.854,0,0,1,4.349,1.359c4.077,3.126,4.213,10.192.136,16.036C69.585,39.136,65.644,41.582,61.975,41.582Z" transform="translate(1107.037 5020.39)"/></g></svg>