<svg xmlns="http://www.w3.org/2000/svg" viewBox="0 0 30 30" width="30" height="30">
	<style>
		tspan { white-space:pre }
		.shp0 { opacity: 0;fill: #ffffff } 
		.shp1 { fill: #65686b;stroke: #65686b } 
	</style>
	<g id="Layer">
		<path id="Layer" class="shp0" d="M0 29L29 29L29 0L0 0L0 29Z" />
		<path id="Layer" class="shp1" d="M19.12 23.81C19.01 23.92 18.88 24.01 18.73 24.07C18.59 24.14 18.43 24.17 18.27 24.17C18.11 24.17 17.95 24.14 17.81 24.07C17.66 24.01 17.53 23.92 17.41 23.81L8.7 15.1L8.7 15.1L17.41 6.38C17.64 6.16 17.95 6.04 18.27 6.04C18.58 6.05 18.89 6.17 19.11 6.4C19.34 6.62 19.47 6.93 19.47 7.24C19.47 7.56 19.35 7.87 19.13 8.1L12.13 15.1L12.13 15.1L19.13 22.1C19.24 22.21 19.33 22.34 19.39 22.49C19.45 22.64 19.48 22.79 19.48 22.95C19.48 23.11 19.45 23.27 19.39 23.42C19.33 23.57 19.24 23.7 19.12 23.81L19.12 23.81Z" />
	</g>
</svg>