<svg xmlns="http://www.w3.org/2000/svg" width="70" height="70" viewBox="0 0 70 70"><defs><style>.a{fill:#fff;opacity:0;}.b{fill:#e35205;}</style></defs><rect class="a" width="70" height="70"/><path class="b" d="M16.178,44.8h0A104.224,104.224,0,0,1,8.089,34.65a63.652,63.652,0,0,1-5.561-9.459A23.446,23.446,0,0,1,0,15.68,15.341,15.341,0,0,1,4.735,4.589,16.337,16.337,0,0,1,16.178,0,16.337,16.337,0,0,1,27.621,4.589,15.341,15.341,0,0,1,32.355,15.68a23.446,23.446,0,0,1-2.528,9.511,63.655,63.655,0,0,1-5.561,9.459A104.225,104.225,0,0,1,16.179,44.8Zm0-35.84a6.837,6.837,0,0,0-6.933,6.72A6.837,6.837,0,0,0,16.178,22.4a6.837,6.837,0,0,0,6.933-6.719A6.837,6.837,0,0,0,16.178,8.96Z" transform="translate(18.667 11.667)"/></svg>