<svg xmlns="http://www.w3.org/2000/svg" width="60" height="60" viewBox="0 0 60 60"><defs><style>.a{fill:#fff;opacity:0;}.b{fill:#65686b;}</style></defs><rect class="a" width="60" height="60"/><path class="b" d="M13.867,38.4h0a89.335,89.335,0,0,1-6.933-8.7,54.559,54.559,0,0,1-4.767-8.107A20.1,20.1,0,0,1,0,13.44,13.149,13.149,0,0,1,4.058,3.934,14,14,0,0,1,13.867,0a14,14,0,0,1,9.808,3.934,13.149,13.149,0,0,1,4.058,9.507,20.1,20.1,0,0,1-2.167,8.152A54.562,54.562,0,0,1,20.8,29.7a89.335,89.335,0,0,1-6.933,8.7Zm0-30.72a5.86,5.86,0,0,0-5.943,5.76A5.86,5.86,0,0,0,13.867,19.2,5.86,5.86,0,0,0,19.81,13.44,5.86,5.86,0,0,0,13.867,7.68Z" transform="translate(16 10)"/></svg>