<svg xmlns="http://www.w3.org/2000/svg" width="52" height="26.544" viewBox="0 0 52 26.544"><defs><style>.a{fill:#e35205;}</style></defs><g transform="translate(7.434 15.844)"><path class="a" d="M73.85,159.9a5.35,5.35,0,1,0,5.35,5.35A5.354,5.354,0,0,0,73.85,159.9Zm0,8.551a3.212,3.212,0,1,1,3.212-3.212A3.219,3.219,0,0,1,73.85,168.451Z" transform="translate(-68.5 -159.9)"/></g><g transform="translate(33.899 15.844)"><path class="a" d="M344.95,159.9a5.35,5.35,0,1,0,5.35,5.35A5.354,5.354,0,0,0,344.95,159.9Zm0,8.551a3.212,3.212,0,1,1,3.212-3.212A3.219,3.219,0,0,1,344.95,168.451Z" transform="translate(-339.6 -159.9)"/></g><path class="a" d="M51.743,16.245l-.616-.6V.843A.854.854,0,0,0,50.265,0h-39a.869.869,0,0,0-.709.355l-6,8.326A9.727,9.727,0,0,0,1.91,11.788l-.657,1.685a11.567,11.567,0,0,0-.37,2.163l-.626.609a.842.842,0,0,0-.257.6v1.685a.842.842,0,0,0,.257.6l.616.6v1.34a.854.854,0,0,0,.863.843H5.206a.848.848,0,0,0,.863-.843,5.994,5.994,0,0,1,6.069-5.9,5.987,5.987,0,0,1,6.069,5.9.854.854,0,0,0,.863.843H32.931a.848.848,0,0,0,.863-.843,6.071,6.071,0,0,1,12.137,0,.854.854,0,0,0,.863.843h3.471a.848.848,0,0,0,.863-.843v-1.34l.616-.6a.842.842,0,0,0,.257-.6V16.844A.842.842,0,0,0,51.743,16.245ZM18.7,7.168a.867.867,0,0,1-.873.863H8.184a.869.869,0,0,1-.729-1.35l3.5-5.2a.868.868,0,0,1,.729-.386h6.13a.867.867,0,0,1,.873.863V7.168Z" transform="translate(0)"/></svg>