<svg xmlns="http://www.w3.org/2000/svg" width="108.48" height="108.123" viewBox="0 0 108.48 108.123"><defs><style>.a{fill:#e35205;}</style></defs><path class="a" d="M108.007,22.185,86.406.584a2.264,2.264,0,0,0-2.979,0L79.107,4.9a2.263,2.263,0,0,0,0,2.979l3.575,3.575a2.263,2.263,0,0,1,0,2.979l-8.789,8.789a2.264,2.264,0,0,1-2.979,0L60.485,12.8a1.359,1.359,0,0,0-1.788,0L53.037,18.46a2.264,2.264,0,0,0,0,2.979l2.533,2.533a2.264,2.264,0,0,1,0,2.979l-6.555,6.555a2.264,2.264,0,0,0,0,2.979l7.6,7.6a2.263,2.263,0,0,1,0,2.979h0a2.264,2.264,0,0,1-2.979,0l-7.6-7.6a2.264,2.264,0,0,0-2.979,0l-2.979,2.979a2.264,2.264,0,0,0,0,2.979l7.6,7.6a2.264,2.264,0,0,1,0,2.979l-.3.3a2.264,2.264,0,0,1-2.979,0l-7.6-7.6a2.264,2.264,0,0,0-2.979,0l-1.788,1.937h0l-9.981,9.981a2.047,2.047,0,0,0-.6,1.788l2.235,13.556a2.047,2.047,0,0,1-.6,1.788l-6.406,6.406a3.263,3.263,0,0,0-.745,3.575,1.909,1.909,0,0,1-.6,2.086L.6,104.566a2.107,2.107,0,0,0,1.639,3.575,1.839,1.839,0,0,0,1.192-.6L18.177,92.8a2.212,2.212,0,0,1,2.086-.6,3.5,3.5,0,0,0,3.575-.745l6.406-6.406a2.047,2.047,0,0,1,1.788-.6l14,2.384h.149l.3.149,34.71-34.71a2.264,2.264,0,0,1,2.979,0L86.7,54.809a2.263,2.263,0,0,0,2.979,0l5.065-5.065a2.263,2.263,0,0,0,0-2.979l-9.832-9.832a2.264,2.264,0,0,1,0-2.979l8.789-8.789a2.264,2.264,0,0,1,2.979,0l3.575,3.575a2.264,2.264,0,0,0,2.979,0l4.916-4.916C108.6,23.525,108.6,22.78,108.007,22.185Z" transform="translate(0.006 -0.025)"/></svg>