<svg xmlns="http://www.w3.org/2000/svg" width="50" height="50" viewBox="0 0 50 50"><defs><style>.a{fill:#E35205;}</style></defs><path class="a" d="M34.375,0H15.625A15.627,15.627,0,0,0,0,15.625v18.75A15.627,15.627,0,0,0,15.625,50h18.75A15.627,15.627,0,0,0,50,34.375V15.625A15.627,15.627,0,0,0,34.375,0ZM45.313,34.375A10.95,10.95,0,0,1,34.375,45.313H15.625A10.95,10.95,0,0,1,4.688,34.375V15.625A10.95,10.95,0,0,1,15.625,4.688h18.75A10.95,10.95,0,0,1,45.313,15.625Z"/><path class="a" d="M140.5,128A12.5,12.5,0,1,0,153,140.5,12.5,12.5,0,0,0,140.5,128Zm0,20.313a7.813,7.813,0,1,1,7.813-7.812A7.823,7.823,0,0,1,140.5,148.313Z" transform="translate(-115.5 -115.5)"/><circle class="a" cx="1.666" cy="1.666" r="1.666" transform="translate(36.772 9.897)"/></svg>