<svg xmlns="http://www.w3.org/2000/svg" width="52.437" height="52.674" viewBox="0 0 52.437 52.674"><defs><style>.a{fill:#e35205;}</style></defs><g transform="translate(0 -5.853)"><g transform="translate(0 5.853)"><path class="a" d="M23.174,22.823a10.082,10.082,0,0,1,5.3.712c1.582.633,2.294,2.689,3.48,2.768,4.429.4,8.621,0,8.858,1.5a3.243,3.243,0,0,1-.554,2.61c.079,3.005-.791,5.141-2.689,5.853-4.429,1.582-6.485.475-9.254,2.373-2.294,1.5-3.322,5.3-3.48,6.09-.475,3.559,1.582,7.276,1.661,11.705a17.907,17.907,0,0,1-.316,3.638h11.31a1.333,1.333,0,0,0,1.345-1.345V47.42a1.333,1.333,0,0,1,1.345-1.345H51.172a1.249,1.249,0,0,0,1.265-1.265V22.032a1.249,1.249,0,0,0-1.265-1.265H40.336a1.333,1.333,0,0,1-1.345-1.345V8.745A1.333,1.333,0,0,0,37.647,7.4H15.106a1.386,1.386,0,0,0-1.345,1.345v10.6a1.333,1.333,0,0,1-1.345,1.345H1.424A1.418,1.418,0,0,0,0,22.111V42.358C3.559,41.093,10.44,40.3,12.892,32.314c.475-1.661,1.107-4.9,2.373-6.485,1.186-1.5,1.977-1.74,2.056-2.215.554-2.61,4.113-4.825,4.983-6.248C23.49,15.546,24.834,18.235,23.174,22.823Z" transform="translate(0 -7.4)"/><path class="a" d="M17.088,35.976c0-.4.079-.949.475-.949.237,0,.475.4.554.554.237.4.791,1.74,1.186,1.819a12.685,12.685,0,0,1,2.135-.316,3.927,3.927,0,0,1,2.61,1.107,2.248,2.248,0,0,0,.949.316c.316.079.87.079,1.107.316a3.186,3.186,0,0,1,.316,2.926c-.4,1.028-1.028,1.265-2.056,1.661a2.6,2.6,0,0,0-1.582,2.135c-.475,1.819.237,4.034.4,6.011.316,4.35.079,9.016-2.294,12.813-.158.237-.633.87-.949,1.265H15.111a1.353,1.353,0,0,1-1.345-1.424V53.218a1.464,1.464,0,0,0-1.345-1.661H1.27A1.019,1.019,0,0,1,.4,51a8.11,8.11,0,0,1,2.768-2.056A15.773,15.773,0,0,1,8.23,47.76c1.582-.158,3.48.079,4.825-.87a4.945,4.945,0,0,0,1.9-4.192V41.75c0-.4.237-.554.158-.949a27.746,27.746,0,0,1-.079-4.35,4.006,4.006,0,0,1,.4-1.582.481.481,0,0,1,.633,0A6.287,6.287,0,0,0,17.088,35.976Z" transform="translate(-0.084 -13.119)"/></g></g></svg>