<svg xmlns="http://www.w3.org/2000/svg" width="471" height="63.984" viewBox="0 0 471 63.984"><defs><style>.a{fill:#65686b;font-size:26px;font-family:GTWalsheimPro-Regular, GT Walsheim Pro;}.b{fill:none;stroke:#75787b;stroke-miterlimit:10;stroke-width:2px;}.c{fill:#e35205;}</style></defs><text class="a" transform="translate(224 40)"><tspan x="0" y="0">mobile wellness clinic</tspan></text><line class="b" y2="63.984" transform="translate(206.506)"/><g transform="translate(0 5.853)"><g transform="translate(76.402 35.274)"><path class="c" d="M104.9,52l-.4,2.294H99.526v3.164h4.192v2.294H99.605v3.717h5.536v2.373H96.6V52Z" transform="translate(-96.6 -52)"/></g><g transform="translate(86.13 35.274)"><path class="c" d="M119.419,52l-.475,2.294h-3.48V65.762h-3.005V54.373H108.9V52Z" transform="translate(-108.9 -52)"/></g><g transform="translate(102.818 35.274)"><path class="c" d="M132.847,52v5.378h4.192V52h3.005V65.841h-3.005V59.672h-4.192v6.169H130V52Z" transform="translate(-130 -52)"/></g><path class="c" d="M151.948,66.036c-5.378,0-6.248-4.35-6.248-7.2,0-4.35,2.373-7.039,6.248-7.039s6.248,2.689,6.248,7.039C158.2,61.686,157.326,66.036,151.948,66.036Zm0-12.1c-2.61,0-2.847,2.531-2.847,4.983,0,3.48.87,4.983,2.847,4.983s2.847-1.5,2.847-4.983C154.875,56.466,154.558,53.935,151.948,53.935Z" transform="translate(-30.465 -16.684)"/><g transform="translate(128.522 34.958)"><path class="c" d="M171.912,54.922a6.187,6.187,0,0,0-3.4-1.028c-1.186,0-2.056.633-2.056,1.582,0,.712.4,1.107,1.582,1.424l1.74.475c2.373.633,3.717,2.056,3.717,4.113,0,2.768-2.373,4.666-6.011,4.666a11.087,11.087,0,0,1-4.983-1.265l1.107-2.135a8.083,8.083,0,0,0,3.955,1.107c1.661,0,2.531-.633,2.531-1.9,0-.87-.633-1.424-1.9-1.819l-1.582-.4c-2.294-.633-3.48-1.74-3.48-3.875,0-2.531,2.135-4.271,5.22-4.271a8.88,8.88,0,0,1,4.825,1.424Z" transform="translate(-162.5 -51.6)"/></g><g transform="translate(141.968 35.272)"><path class="c" d="M183.692,52c4.666-.079,5.695,2.135,5.695,4.271s-1.186,4.508-5.378,4.508h-1.582V65.84H179.5V52Zm-1.345,6.485h1.5c2.056,0,2.294-1.028,2.294-2.135a1.852,1.852,0,0,0-1.977-2.056h-1.9v4.192Z" transform="translate(-179.5 -51.997)"/></g><g transform="translate(64.775 35.272)"><path class="c" d="M86.092,52c4.666-.079,5.695,2.135,5.695,4.271s-1.186,4.508-5.378,4.508H84.826V65.84H81.9V52Zm-1.345,6.485h1.5c2.056,0,2.294-1.028,2.294-2.135a1.852,1.852,0,0,0-1.977-2.056h-1.9v4.192Z" transform="translate(-81.9 -51.997)"/></g><g transform="translate(153.594 35.274)"><path class="c" d="M197.285,52V65.841H194.2V52Z" transform="translate(-194.2 -52)"/></g><g transform="translate(158.419 35.274)"><path class="c" d="M210.819,52l-.475,2.373h-3.48V65.841h-3.005V54.373H200.3V52Z" transform="translate(-200.3 -52)"/></g><g transform="translate(167.514 35.274)"><path class="c" d="M219.788,52l4.587,13.841h-3.164L220.184,62.6h-4.271l-1.028,3.243H211.8L216.545,52Zm-.316,8.225s-.475-1.424-.791-2.768c-.158-.633-.554-2.452-.554-2.452s-.4,1.661-.712,2.689a19.1,19.1,0,0,1-.791,2.531h2.847Z" transform="translate(-211.8 -52)"/></g><g transform="translate(181.592 35.274)"><path class="c" d="M232.605,52V63.468h5.22l-.554,2.294H229.6V52Z" transform="translate(-229.6 -52)"/></g><path class="c" d="M96.923,25c1.9-.949,2.768-3.005,2.768-5.3,0-2.689-1.424-6.8-8.779-6.8h-8.7a.709.709,0,0,0-.712.712V38.525a.709.709,0,0,0,.712.712h9.016c8.384,0,9.491-5.141,9.491-7.672A7.066,7.066,0,0,0,96.923,25ZM86.245,27.215h4.745c4.666,0,4.666,2.61,4.666,3.875,0,1.424-.158,3.875-4.666,3.875H86.245ZM90.6,23.1h-4.35v-6.09H90.6c4.113,0,4.271,2.056,4.271,3.085S94.787,23.1,90.6,23.1Z" transform="translate(-17.041 -8.55)"/><path class="c" d="M121.927,22.494a8.949,8.949,0,0,0-6.565-2.294,18.192,18.192,0,0,0-6.644,1.345.786.786,0,0,0-.475.633v2.847a.7.7,0,0,0,1.028.633,12.2,12.2,0,0,1,5.774-1.424c3.48,0,4.508,1.74,4.666,3.322h-3.638c-2.926,0-5.22.554-6.8,1.74a6.27,6.27,0,0,0-2.373,5.3,6.373,6.373,0,0,0,1.9,4.825,7.213,7.213,0,0,0,5.062,1.819c3.48,0,5.141-1.345,5.853-2.056v.87a.709.709,0,0,0,.712.712h3.085a.709.709,0,0,0,.712-.712V29.3C124.142,26.29,123.351,24,121.927,22.494Zm-2.294,8.779c0,2.768-1.345,5.932-4.983,5.932-1.977,0-3.322-1.028-3.322-2.847,0-2.531,1.9-3.085,5.932-3.085Z" transform="translate(-22.352 -10.076)"/><path class="c" d="M141.386,20.1a7.581,7.581,0,0,0-5.378,2.135v-.949a.709.709,0,0,0-.712-.712h-3.085a.709.709,0,0,0-.712.712V39.952a.709.709,0,0,0,.712.712H135.3a.709.709,0,0,0,.712-.712v-10.6c0-3.085,1.582-5.22,4.745-5.22,2.926,0,3.48,2.215,3.48,4.587V39.873a.709.709,0,0,0,.712.712h3.085a.709.709,0,0,0,.712-.712V28.642C148.663,23.9,146.685,20.1,141.386,20.1Z" transform="translate(-27.496 -10.055)"/><path class="c" d="M166.259,11.5h-2.452c-2.847,0-6.8.633-6.8,6.644v.633h-2.294a.709.709,0,0,0-.712.712v2.373a.709.709,0,0,0,.712.712h2.294V38.154a.709.709,0,0,0,.712.712H160.8a.709.709,0,0,0,.712-.712V22.573h4.034a.709.709,0,0,0,.712-.712V19.488a.709.709,0,0,0-.712-.712h-4.034v-.949c0-1.265.316-1.74.475-1.9a2.469,2.469,0,0,1,1.819-.475h2.452a.709.709,0,0,0,.712-.712V12.212A.835.835,0,0,0,166.259,11.5Z" transform="translate(-32.2 -8.257)"/><g transform="translate(135.72 3.717)"><path class="c" d="M175.4,20.7h-3.085a.709.709,0,0,0-.712.712V40.077a.709.709,0,0,0,.712.712H175.4a.709.709,0,0,0,.712-.712V21.412A.709.709,0,0,0,175.4,20.7Z" transform="translate(-171.6 -13.898)"/><path class="c" d="M175.4,12.1h-3.085a.709.709,0,0,0-.712.712v3.164a.709.709,0,0,0,.712.712H175.4a.709.709,0,0,0,.712-.712V12.812A.709.709,0,0,0,175.4,12.1Z" transform="translate(-171.6 -12.1)"/></g><path class="c" d="M189.686,20.1c-5.774,0-9.886,3.8-9.886,10.677,0,7.751,5.615,10.282,10.44,10.282a18.357,18.357,0,0,0,7.2-1.5.626.626,0,0,0,.4-.633V36a.709.709,0,0,0-1.028-.633,13.459,13.459,0,0,1-6.485,1.661c-3.243,0-5.536-1.582-6.011-5.141h13.445a.709.709,0,0,0,.712-.712v-1.5C198.624,24.134,195.46,20.1,189.686,20.1Zm-5.141,8.146a4.681,4.681,0,0,1,4.983-4.113,4.171,4.171,0,0,1,4.508,4.113Z" transform="translate(-37.595 -10.055)"/><path class="c" d="M209.6,11.5h-3.085a.709.709,0,0,0-.712.712V38.154a.709.709,0,0,0,.712.712H209.6a.709.709,0,0,0,.712-.712V12.212A.709.709,0,0,0,209.6,11.5Z" transform="translate(-43.031 -8.257)"/><path class="c" d="M231.97,33.487V12.212a.709.709,0,0,0-.712-.712h-3.085a.709.709,0,0,0-.712.712v8.067a7.325,7.325,0,0,0-5.378-1.977c-3.8,0-8.384,2.768-8.384,10.519,0,5.457,2.768,10.519,8.384,10.519,3.638,0,5.378-1.819,5.932-2.61a7.4,7.4,0,0,0,3.005,2.768.755.755,0,0,0,.949-.237l1.661-2.531a.691.691,0,0,0-.237-1.028C232.128,34.99,231.97,34.594,231.97,33.487Zm-4.508-4.666c0,4.113-1.74,6.565-4.587,6.565-2.926,0-4.587-2.452-4.587-6.565,0-3.8,1.5-6.565,4.587-6.565C225.722,22.256,227.462,24.629,227.462,28.821Z" transform="translate(-44.683 -8.257)"/><path class="c" d="M242.1,14.119a1.81,1.81,0,0,1-1.9,1.819,1.821,1.821,0,1,1,0-3.638A1.81,1.81,0,0,1,242.1,14.119Zm-3.243,0a1.424,1.424,0,0,0,2.847,0,1.426,1.426,0,1,0-2.847,0Zm1.107.949h-.4V13.249c.158,0,.4-.079.712-.079a1.225,1.225,0,0,1,.633.158.6.6,0,0,1,.158.4.374.374,0,0,1-.4.4h0a.726.726,0,0,1,.316.475c.079.316.079.4.158.475h-.475c-.079-.079-.079-.237-.158-.475a.362.362,0,0,0-.4-.316h-.237v.791Zm0-1.028h.237c.237,0,.4-.079.4-.237a.362.362,0,0,0-.4-.316h-.237Z" transform="translate(-49.827 -8.425)"/><path class="c" d="M23.174,22.823a10.082,10.082,0,0,1,5.3.712c1.582.633,2.294,2.689,3.48,2.768,4.429.4,8.621,0,8.858,1.5a3.243,3.243,0,0,1-.554,2.61c.079,3.005-.791,5.141-2.689,5.853-4.429,1.582-6.485.475-9.254,2.373-2.294,1.5-3.322,5.3-3.48,6.09-.475,3.559,1.582,7.276,1.661,11.705a17.907,17.907,0,0,1-.316,3.638h11.31a1.333,1.333,0,0,0,1.345-1.345V47.42a1.333,1.333,0,0,1,1.345-1.345H51.172a1.249,1.249,0,0,0,1.265-1.265V22.032a1.249,1.249,0,0,0-1.265-1.265H40.336a1.333,1.333,0,0,1-1.345-1.345V8.745A1.333,1.333,0,0,0,37.647,7.4H15.106a1.386,1.386,0,0,0-1.345,1.345v10.6a1.333,1.333,0,0,1-1.345,1.345H1.424A1.418,1.418,0,0,0,0,22.111V42.358C3.559,41.093,10.44,40.3,12.892,32.314c.475-1.661,1.107-4.9,2.373-6.485,1.186-1.5,1.977-1.74,2.056-2.215.554-2.61,4.113-4.825,4.983-6.248C23.49,15.546,24.834,18.235,23.174,22.823Z" transform="translate(0 -7.4)"/><path class="c" d="M17.088,35.976c0-.4.079-.949.475-.949.237,0,.475.4.554.554.237.4.791,1.74,1.186,1.819a12.685,12.685,0,0,1,2.135-.316,3.927,3.927,0,0,1,2.61,1.107,2.248,2.248,0,0,0,.949.316c.316.079.87.079,1.107.316a3.186,3.186,0,0,1,.316,2.926c-.4,1.028-1.028,1.265-2.056,1.661a2.6,2.6,0,0,0-1.582,2.135c-.475,1.819.237,4.034.4,6.011.316,4.35.079,9.016-2.294,12.813-.158.237-.633.87-.949,1.265H15.111a1.353,1.353,0,0,1-1.345-1.424V53.218a1.464,1.464,0,0,0-1.345-1.661H1.27A1.019,1.019,0,0,1,.4,51a8.11,8.11,0,0,1,2.768-2.056A15.773,15.773,0,0,1,8.23,47.76c1.582-.158,3.48.079,4.825-.87a4.945,4.945,0,0,0,1.9-4.192V41.75c0-.4.237-.554.158-.949a27.746,27.746,0,0,1-.079-4.35,4.006,4.006,0,0,1,.4-1.582.481.481,0,0,1,.633,0A6.287,6.287,0,0,0,17.088,35.976Z" transform="translate(-0.084 -13.119)"/></g></svg>