<svg xmlns="http://www.w3.org/2000/svg" width="50" height="40.625" viewBox="0 0 50 40.625"><defs><style>.a{fill:#E35205;}</style></defs><path class="a" d="M50,52.809a21.371,21.371,0,0,1-5.906,1.619A10.193,10.193,0,0,0,48.6,48.763a20.485,20.485,0,0,1-6.5,2.481,10.25,10.25,0,0,0-17.731,7.009,10.555,10.555,0,0,0,.238,2.338A29.014,29.014,0,0,1,3.481,49.869a10.253,10.253,0,0,0,3.15,13.7A10.123,10.123,0,0,1,2,62.306v.112a10.3,10.3,0,0,0,8.212,10.072,10.231,10.231,0,0,1-2.687.338,9.063,9.063,0,0,1-1.941-.175,10.348,10.348,0,0,0,9.578,7.141A20.6,20.6,0,0,1,2.453,84.166,19.2,19.2,0,0,1,0,84.025a28.858,28.858,0,0,0,15.725,4.6C34.587,88.625,44.9,73,44.9,59.456c0-.453-.016-.891-.038-1.325A20.449,20.449,0,0,0,50,52.809Z" transform="translate(0 -48)"/></svg>