<svg xmlns="http://www.w3.org/2000/svg" width="50" height="50" viewBox="0 0 50 50"><defs><style>.a{fill:#75787b;}</style></defs><path class="a" d="M294.066,508.668q-1.6.261-3.211.48Q292.467,508.929,294.066,508.668Zm0,0" transform="translate(-263.938 -460.334)"/><path class="a" d="M300.869,507.793c-.51.094-1.02.18-1.529.268C299.85,507.973,300.359,507.887,300.869,507.793Zm0,0" transform="translate(-270.831 -459.896)"/><path class="a" d="M281.373,510.34q-1.872.211-3.764.371Q279.5,510.553,281.373,510.34Zm0,0" transform="translate(-252.166 -461.17)"/><path class="a" d="M288.25,509.738c-.6.08-1.2.154-1.8.225C287.047,509.893,287.65,509.818,288.25,509.738Zm0,0" transform="translate(-259.29 -460.869)"/><path class="a" d="M308.016,506.41c-.449.1-.9.191-1.352.283C307.115,506.6,307.566,506.506,308.016,506.41Zm0,0" transform="translate(-277.371 -459.205)"/><path class="a" d="M325.574,502.113c-.363.1-.727.2-1.09.3C324.848,502.314,325.211,502.217,325.574,502.113Zm0,0" transform="translate(-293.355 -457.057)"/><path class="a" d="M320.246,503.543c-.395.1-.791.209-1.188.309Q319.653,503.7,320.246,503.543Zm0,0" transform="translate(-288.499 -457.771)"/><path class="a" d="M313.328,505.254c-.418.1-.84.189-1.262.283C312.488,505.443,312.91,505.352,313.328,505.254Zm0,0" transform="translate(-282.213 -458.627)"/><path class="a" d="M275.5,511.09q-1.011.085-2.023.152Q274.494,511.175,275.5,511.09Zm0,0" transform="translate(-247.65 -461.545)"/><path class="a" d="M50,25A25,25,0,1,0,25,50c.147,0,.293,0,.439-.006V30.533H20.068v-6.26h5.371V19.667c0-5.342,3.261-8.25,8.027-8.25a44.214,44.214,0,0,1,4.815.246v5.583H35c-2.592,0-3.094,1.232-3.094,3.04v3.987h6.2l-.808,6.26H31.9v18.5A25.013,25.013,0,0,0,50,25Zm0,0"/><path class="a" d="M268.9,511.43q-2,.129-4.012.2Q266.9,511.562,268.9,511.43Zm0,0" transform="translate(-240.719 -461.715)"/><path class="a" d="M262.629,511.836q-1.061.035-2.125.053Q261.567,511.871,262.629,511.836Zm0,0" transform="translate(-235.941 -461.918)"/></svg>