<svg xmlns="http://www.w3.org/2000/svg" width="118.305" height="98.882" viewBox="0 0 118.305 98.882"><defs><style>.a{fill:#e35205;}</style></defs><path class="a" d="M118.244,33C117.623,28.966,107.485,1.965,73.759.1,63.207-.518,54.931,2.379,48.1,4.862,43.448,6.517,30.93,12.517,25.033,15.1s-9.1,3.31-16.242,6.621C1.55,25.035-.933,30.414.412,35.9a9.6,9.6,0,0,0,3.517,5.276L6.515,51.519a1.011,1.011,0,0,0,1.966-.1l.828-8.173A9.922,9.922,0,0,0,15,42.1a10.25,10.25,0,0,0,1.759-1.138l1.655,10.966-3.207-.724a2.155,2.155,0,0,0-2.069.517,2.454,2.454,0,0,0-.724,2.069l3.621,28.967a2.339,2.339,0,0,0,2.276,2.069h.31a2.311,2.311,0,0,0,1.966-2.586l-3.31-25.76,3.207.724a2.155,2.155,0,0,0,2.069-.517,2.271,2.271,0,0,0,.724-2.069l-2.9-18.828c.621.31,1.759.724,2.9,1.138l4.138,22.242a2.38,2.38,0,0,0,1.655,1.759,2.523,2.523,0,0,0,2.379-.621l3.1-3.207L42.62,83.8A2.328,2.328,0,0,0,44.9,85.451a1.312,1.312,0,0,0,.621-.1,2.292,2.292,0,0,0,1.552-2.9l-9.1-30.622a1.979,1.979,0,0,0-1.655-1.552,2.335,2.335,0,0,0-2.276.621l-2.793,2.9L28.447,38.484a6.592,6.592,0,0,1,.724.207,74.747,74.747,0,0,0,7.655,1.035L47.689,71.174a2.372,2.372,0,0,0,1.966,1.552,2.506,2.506,0,0,0,2.276-1.138l4.448-7.966L76.552,97.762A2.343,2.343,0,0,0,78.518,98.9a2.085,2.085,0,0,0,1.138-.31,2.339,2.339,0,0,0,.828-3.207L58.345,57.622a2.267,2.267,0,0,0-2.069-1.138,2.128,2.128,0,0,0-1.966,1.241l-3.931,7.242L42.1,41.173a80.387,80.387,0,0,0,7.242,7.552c6.207,5.483,15,8.587,24.311,8.793,13.552.31,19.346-1.138,24.311-2.69a49.549,49.549,0,0,0,12.932-6.1c3.828-2.69,5.69-5.173,6.828-8.069A22.919,22.919,0,0,0,118.244,33Z" transform="translate(-0.062 -0.018)"/></svg>