<svg xmlns="http://www.w3.org/2000/svg" width="117.013" height="93.18" viewBox="0 0 117.013 93.18"><defs><style>.a{fill:#e15426;}.b{fill:#fff;}.c{fill:#dededf;}</style></defs><g transform="translate(-1424 -4625)"><path class="a" d="M107.7,8.8A32.632,32.632,0,0,0,65.2,7a3.75,3.75,0,0,1-4.5,0A32.632,32.632,0,0,0,18.2,8.8C5.8,20.6,5.5,39.7,19.2,52.7,32.5,65.4,52.8,84.8,60.5,92.2a3.822,3.822,0,0,0,5.1,0c7.8-7.4,28-26.8,41.3-39.5,13.5-13,13.2-32,.8-43.9" transform="translate(1424 4625.006)"/><circle class="b" cx="11.5" cy="11.5" r="11.5" transform="translate(1446.6 4645.306)"/><path class="c" d="M11.6,52.2a11.547,11.547,0,0,1-3.4-8.4,11.962,11.962,0,0,1,3.4-8.4l1.6-1.6a11.83,11.83,0,0,1,16.7,0l8.5,8.6a11.947,11.947,0,0,0,3.8-2.5,10.185,10.185,0,0,0,2.1-3l-8.8-8.8a20.038,20.038,0,0,0-28.3,0L5.6,29.7A20.869,20.869,0,0,0,0,43.8,20.038,20.038,0,0,0,5.5,57.6c.1.1.2.3.3.4,8.4,8.4,4.7,12,3.1,13.6L6.7,73.8a4.1,4.1,0,0,0,0,5.8,3.784,3.784,0,0,0,2.8,1.2,4.454,4.454,0,0,0,2.9-1.2l2.2-2.2c4-4.1,9-12.7-2.8-24.8Z" transform="translate(1424 4625.006)"/><circle class="b" cx="9.3" cy="9.3" r="9.3" transform="translate(1499 4657.106)"/><path class="c" d="M113.7,61.1a4.106,4.106,0,0,0-5.8.1l-.1.1a13.4,13.4,0,0,1-18.9-.1l-.7-.7a13.643,13.643,0,0,1,0-19.1l4.3-4.3.1-.1A9.279,9.279,0,0,0,86,32.1l-3.4,3.4h0a21.728,21.728,0,0,0,0,30.6l.7.7a21.318,21.318,0,0,0,15.3,6.4,21.662,21.662,0,0,0,15.3-6.4l.1-.1A4.168,4.168,0,0,0,113.7,61.1Z" transform="translate(1424 4625.006)"/></g></svg>